<?xml version="1.0" standalone="no"?>
<!DOCTYPE svg PUBLIC "-//W3C//DTD SVG 20010904//EN"
 "http://www.w3.org/TR/2001/REC-SVG-20010904/DTD/svg10.dtd">
<svg version="1.0" xmlns="http://www.w3.org/2000/svg"
 width="300.000000pt" height="300.000000pt" viewBox="0 0 300.000000 300.000000"
 preserveAspectRatio="xMidYMid meet">
<metadata>
Created by potrace 1.10, written by Peter Selinger 2001-2011
</metadata>
<g transform="translate(0.000000,300.000000) scale(0.100000,-0.100000)"
fill="#000000" stroke="none">
<path d="M812 2239 c-225 -39 -298 -247 -183 -515 l22 -51 -27 -79 c-22 -67
-26 -90 -21 -153 10 -137 90 -251 215 -309 47 -22 72 -26 142 -27 47 0 106 6
131 13 l47 14 68 -50 c305 -222 615 -340 864 -330 114 5 168 22 228 73 59 49
100 166 73 211 -9 17 -10 17 -11 -7 -1 -85 -57 -173 -137 -213 -140 -70 -419
-24 -699 117 -112 57 -267 153 -342 214 l-42 35 -48 -19 c-32 -12 -73 -18
-128 -18 -73 0 -89 4 -150 35 -156 80 -217 268 -140 437 l25 53 -33 72 c-75
164 -74 292 5 382 61 69 121 90 256 91 98 0 108 1 78 12 -50 17 -133 23 -193
12z"/>
<path d="M856 2199 c-76 -12 -137 -48 -173 -102 -42 -63 -50 -121 -31 -219 76
-366 612 -856 1122 -1023 258 -84 451 -64 533 58 38 56 53 141 32 178 -13 23
-14 20 -20 -36 -8 -71 -14 -89 -46 -133 -39 -53 -95 -75 -200 -80 -402 -19
-1071 419 -1317 861 -108 195 -101 359 17 431 42 26 61 30 140 34 50 3 122 -1
161 -8 159 -28 392 -130 577 -251 49 -32 89 -55 89 -50 0 5 -33 34 -72 64
-214 160 -439 260 -628 277 -109 11 -118 11 -184 -1z"/>
<path d="M958 2100 c-221 -66 -119 -406 215 -715 405 -376 943 -573 1094 -401
27 29 52 110 39 123 -2 2 -18 -19 -35 -47 -57 -92 -126 -114 -281 -87 -107 18
-232 64 -365 135 l-90 48 4 94 c1 52 5 97 7 99 3 3 35 -24 72 -60 169 -163
189 -179 225 -179 22 0 41 7 53 21 17 19 19 43 24 243 l5 221 29 3 c15 2 39 1
52 -2 l24 -6 0 -218 c0 -215 0 -219 23 -240 20 -19 35 -22 98 -22 66 0 78 3
97 23 21 22 22 31 22 233 0 150 3 213 12 222 7 7 32 12 55 12 33 0 50 6 68 25
22 21 25 33 25 90 0 57 -3 69 -25 91 l-25 25 -314 -2 -314 -3 -93 61 c-226
146 -436 224 -599 222 -41 0 -87 -4 -102 -9z m213 -40 c101 -19 223 -65 382
-142 86 -42 157 -80 157 -83 0 -4 -9 -18 -20 -32 -17 -22 -20 -41 -20 -119 0
-52 -4 -94 -9 -94 -4 0 -65 54 -134 120 -108 102 -131 120 -159 120 -53 0 -78
-33 -78 -102 0 -32 -3 -58 -6 -58 -3 0 -26 23 -51 51 -25 27 -67 61 -93 74
-57 29 -158 48 -205 39 -31 -5 -36 -3 -45 21 -15 39 -12 112 6 146 31 61 141
84 275 59z m-66 -294 c89 -40 139 -99 160 -188 l7 -28 -81 0 c-79 0 -81 0 -96
30 -15 30 -60 60 -89 60 -8 0 -34 32 -57 71 -35 58 -40 72 -28 80 22 15 128 0
184 -25z m447 -133 l158 -158 0 158 0 157 85 0 85 0 0 -320 0 -320 -32 0 c-29
0 -52 19 -190 157 l-158 158 0 -143 c0 -78 -3 -142 -6 -142 -3 0 -41 26 -85
57 l-79 57 0 248 0 248 32 0 c29 0 52 -19 190 -157z m838 82 l0 -75 -80 0 -80
0 0 -245 0 -245 -80 0 -80 0 0 245 0 245 -80 0 -80 0 0 75 0 75 240 0 240 0 0
-75z m-1100 -280 c0 -55 -4 -85 -11 -85 -13 0 -159 139 -159 151 0 5 33 10 73
12 39 1 78 4 85 5 9 1 12 -21 12 -83z"/>
<path d="M813 1452 c8 -70 40 -120 91 -143 38 -17 96 -26 96 -14 0 3 -22 26
-48 52 -27 27 -70 73 -96 103 l-48 55 5 -53z"/>
</g>
</svg>
